<?xml version="1.0" encoding="UTF-8"?>
<svg width="1200" height="675" viewBox="0 0 1200 675" fill="none" xmlns="http://www.w3.org/2000/svg" role="img" aria-label="Air freight illustration">
  <defs>
    <linearGradient id="g0" x1="0" y1="0" x2="1" y2="1">
      <stop offset="0%" stop-color="#F1F5FF"/>
      <stop offset="100%" stop-color="#E6FBFF"/>
    </linearGradient>
    <linearGradient id="g1" x1="0" y1="0" x2="1" y2="1">
      <stop offset="0%" stop-color="#6EA8FF"/>
      <stop offset="100%" stop-color="#4CC9F0"/>
    </linearGradient>
    <linearGradient id="g2" x1="0" y1="0" x2="1" y2="1">
      <stop offset="0%" stop-color="#A5B4FC"/>
      <stop offset="100%" stop-color="#93C5FD"/>
    </linearGradient>
    <filter id="shadow" x="-20%" y="-20%" width="140%" height="140%">
      <feDropShadow dx="0" dy="8" stdDeviation="12" flood-color="#000" flood-opacity="0.12"/>
    </filter>
  </defs>
  <rect width="1200" height="675" rx="24" fill="url(#g0)"/>

  <!-- Air lanes -->
  <g stroke="#B3D4FF" stroke-width="2" opacity="0.7">
    <path d="M80 560 C 240 520, 380 520, 560 540 S 920 600, 1120 520" fill="none"/>
    <path d="M60 480 C 220 440, 380 440, 560 460 S 920 520, 1140 460" fill="none"/>
    <path d="M40 400 C 200 360, 380 360, 560 380 S 920 440, 1160 380" fill="none"/>
  </g>

  <!-- Dots as waypoints -->
  <g fill="#93C5FD" opacity="0.9">
    <circle cx="160" cy="520" r="4"/>
    <circle cx="380" cy="520" r="4"/>
    <circle cx="760" cy="560" r="4"/>
    <circle cx="980" cy="540" r="4"/>
  </g>

  <!-- Stylized plane -->
  <g transform="translate(300,220) rotate(-8)" filter="url(#shadow)">
    <g>
      <path d="M0 90 L240 60 C265 57 295 68 308 86 C322 106 316 127 292 134 L48 206 L18 204 C5 202 -3 192 0 180 L16 126 L0 90 Z" fill="url(#g1)"/>
      <path d="M240 60 L322 48 C340 46 354 60 351 78 L344 120 C341 137 325 149 308 146 L292 142" fill="url(#g2)"/>
      <rect x="58" y="150" width="120" height="10" rx="5" fill="#E2E8F0" opacity="0.85"/>
      <rect x="190" y="138" width="70" height="10" rx="5" fill="#E2E8F0" opacity="0.85"/>
    </g>
  </g>

  <!-- Soft clouds -->
  <g fill="#ffffff" opacity="0.85">
    <ellipse cx="980" cy="180" rx="140" ry="50"/>
    <ellipse cx="1030" cy="200" rx="90" ry="34"/>
    <ellipse cx="880" cy="200" rx="110" ry="40"/>
  </g>
</svg>
