<svg xmlns="http://www.w3.org/2000/svg" viewBox="0 0 1600 1000" width="1600" height="1000">
  <defs>
    <linearGradient id="bg" x1="0" y1="0" x2="1" y2="1">
      <stop offset="0%" stop-color="#F5F7FB"/>
      <stop offset="100%" stop-color="#EEF3FF"/>
    </linearGradient>
    <linearGradient id="accent" x1="0" y1="0" x2="1" y2="1">
      <stop offset="0%" stop-color="#6EA8FE"/>
      <stop offset="100%" stop-color="#7EE0D2"/>
    </linearGradient>
    <linearGradient id="accent2" x1="0" y1="0" x2="1" y2="1">
      <stop offset="0%" stop-color="#9B8CFF"/>
      <stop offset="100%" stop-color="#57D0FF"/>
    </linearGradient>
    <filter id="soft" x="-20%" y="-20%" width="140%" height="140%">
      <feGaussianBlur stdDeviation="40"/>
    </filter>
  </defs>
  <rect width="100%" height="100%" fill="url(#bg)"/>
  <!-- soft blobs -->
  <g opacity="0.35" filter="url(#soft)">
    <circle cx="250" cy="220" r="180" fill="url(#accent)"/>
    <circle cx="1350" cy="200" r="160" fill="url(#accent2)"/>
    <circle cx="1400" cy="820" r="200" fill="url(#accent)"/>
    <circle cx="280" cy="780" r="180" fill="url(#accent2)"/>
  </g>
  <!-- DNA helices -->
  <g opacity="0.35" stroke="#7AA6FF" stroke-width="6" fill="none">
    <path d="M200,150 C380,320 480,420 660,590"/>
    <path d="M260,150 C440,320 540,420 720,590"/>
    <path d="M940,380 C1110,530 1180,610 1350,760"/>
    <path d="M990,350 C1160,500 1230,580 1400,730"/>
    <!-- rungs -->
    <g opacity="0.6">
      <line x1="300" y1="240" x2="360" y2="210"/>
      <line x1="360" y1="300" x2="420" y2="260"/>
      <line x1="420" y1="360" x2="480" y2="310"/>
      <line x1="480" y1="420" x2="540" y2="360"/>
      <line x1="1040" y1="460" x2="1100" y2="420"/>
      <line x1="1100" y1="520" x2="1160" y2="470"/>
      <line x1="1160" y1="580" x2="1220" y2="530"/>
    </g>
  </g>
  <!-- Abstract goat, centered -->
  <g transform="translate(800 580)">
    <!-- shadow -->
    <ellipse cx="0" cy="200" rx="360" ry="60" fill="#000" opacity="0.06"/>
    <!-- body -->
    <path d="M-360,60 Q-260,0 -120,-10 H180 Q300,0 360,60 Q320,110 180,120 H-120 Q-260,110 -360,60Z" fill="#ffffff" stroke="#CED7EE" stroke-width="3"/>
    <!-- torso -->
    <rect x="-180" y="-80" rx="60" ry="60" width="360" height="220" fill="#FFFFFF" stroke="#8FB5FF" stroke-width="4"/>
    <!-- neck -->
    <rect x="120" y="-120" width="60" height="120" rx="30" fill="#FFFFFF" stroke="#8FB5FF" stroke-width="4"/>
    <!-- head -->
    <g transform="translate(160 -160)">
      <rect x="-50" y="0" width="160" height="90" rx="45" fill="#FFFFFF" stroke="#8FB5FF" stroke-width="4"/>
      <circle cx="20" cy="45" r="8" fill="#6276A7"/>
      <circle cx="70" cy="45" r="8" fill="#6276A7"/>
      <!-- horns -->
      <path d="M-20,0 C-40,-40 -10,-70 30,-60" stroke="#9B8CFF" stroke-width="8" fill="none"/>
      <path d="M120,0 C140,-40 110,-70 70,-60" stroke="#57D0FF" stroke-width="8" fill="none"/>
      <!-- ear -->
      <path d="M-10,50 q-30,20 -20,40 q25,-10 40,-20Z" fill="#EAF1FF" stroke="#8FB5FF" stroke-width="3"/>
    </g>
    <!-- legs -->
    <g stroke="#8FB5FF" stroke-width="6" stroke-linecap="round">
      <line x1="-120" y1="140" x2="-120" y2="220"/>
      <line x1="-60" y1="140" x2="-60" y2="220"/>
      <line x1="120" y1="140" x2="120" y2="220"/>
      <line x1="180" y1="140" x2="180" y2="220"/>
    </g>
    <!-- tail -->
    <path d="M-200,-30 q-30,-20 -40,0 q20,15 40,10Z" fill="#EAF1FF" stroke="#8FB5FF" stroke-width="3"/>
  </g>
</svg>
