<?xml version="1.0" encoding="UTF-8"?>
<svg width="1200" height="675" viewBox="0 0 1200 675" fill="none" xmlns="http://www.w3.org/2000/svg" role="img" aria-label="Livestock transport illustration">
  <defs>
    <linearGradient id="bg" x1="0" y1="0" x2="1" y2="1">
      <stop offset="0%" stop-color="#F3F4F6"/>
      <stop offset="100%" stop-color="#E5E7EB"/>
    </linearGradient>
    <linearGradient id="truck" x1="0" y1="0" x2="1" y2="1">
      <stop offset="0%" stop-color="#4B5563"/>
      <stop offset="100%" stop-color="#6B7280"/>
    </linearGradient>
    <linearGradient id="livestock" x1="0" y1="0" x2="1" y2="1">
      <stop offset="0%" stop-color="#F59E0B"/>
      <stop offset="100%" stop-color="#F97316"/>
    </linearGradient>
    <filter id="shadow" x="-20%" y="-20%" width="140%" height="140%">
      <feDropShadow dx="0" dy="8" stdDeviation="12" flood-color="#000" flood-opacity="0.12"/>
    </filter>
  </defs>

  <rect width="1200" height="675" rx="24" fill="url(#bg)"/>

  <!-- Truck -->
  <g transform="translate(200,300)" filter="url(#shadow)">
    <rect x="0" y="80" width="600" height="120" rx="12" fill="url(#truck)"/>
    <rect x="480" y="40" width="120" height="80" rx="8" fill="#9CA3AF"/>
    <circle cx="100" cy="220" r="40" fill="#6B7280"/>
    <circle cx="500" cy="220" r="40" fill="#6B7280"/>
  </g>

  <!-- Livestock -->
  <g transform="translate(240,260)">
    <rect x="0" y="0" width="80" height="60" rx="8" fill="url(#livestock)"/>
    <rect x="100" y="0" width="80" height="60" rx="8" fill="url(#livestock)"/>
    <rect x="200" y="0" width="80" height="60" rx="8" fill="url(#livestock)"/>
  </g>

  <!-- Background elements -->
  <g fill="#D1D5DB">
    <rect x="800" y="400" width="200" height="20" rx="4"/>
    <rect x="850" y="420" width="150" height="20" rx="4"/>
  </g>
</svg>