<?xml version="1.0" encoding="UTF-8"?>
<svg width="1200" height="675" viewBox="0 0 1200 675" fill="none" xmlns="http://www.w3.org/2000/svg" role="img" aria-label="Sea freight illustration">
  <defs>
    <linearGradient id="bg" x1="0" y1="0" x2="1" y2="1">
      <stop offset="0%" stop-color="#ECFEFF"/>
      <stop offset="100%" stop-color="#EEF2FF"/>
    </linearGradient>
    <linearGradient id="ship" x1="0" y1="0" x2="1" y2="1">
      <stop offset="0%" stop-color="#0EA5E9"/>
      <stop offset="100%" stop-color="#3B82F6"/>
    </linearGradient>
    <linearGradient id="container" x1="0" y1="0" x2="1" y2="1">
      <stop offset="0%" stop-color="#F59E0B"/>
      <stop offset="100%" stop-color="#F97316"/>
    </linearGradient>
    <linearGradient id="container2" x1="0" y1="0" x2="1" y2="1">
      <stop offset="0%" stop-color="#10B981"/>
      <stop offset="100%" stop-color="#22C55E"/>
    </linearGradient>
    <filter id="shadow" x="-20%" y="-20%" width="140%" height="140%">
      <feDropShadow dx="0" dy="8" stdDeviation="12" flood-color="#000" flood-opacity="0.12"/>
    </filter>
  </defs>

  <rect width="1200" height="675" rx="24" fill="url(#bg)"/>

  <!-- Sun and clouds -->
  <circle cx="1020" cy="120" r="38" fill="#FDE68A"/>
  <g fill="#fff" opacity="0.9">
    <ellipse cx="230" cy="150" rx="120" ry="40"/>
    <ellipse cx="300" cy="170" rx="90" ry="28"/>
    <ellipse cx="150" cy="170" rx="80" ry="26"/>
  </g>

  <!-- Water waves -->
  <g fill="none" stroke="#93C5FD" stroke-width="2" opacity="0.7">
    <path d="M0 520 C 120 540, 240 500, 360 520 S 600 540, 720 520 S 960 500, 1200 520"/>
    <path d="M0 560 C 120 580, 240 540, 360 560 S 600 580, 720 560 S 960 540, 1200 560"/>
  </g>

  <!-- Ship -->
  <g transform="translate(220,280)" filter="url(#shadow)">
    <path d="M0 120 L380 120 L420 80 L520 80 L560 112 C568 118 565 130 556 134 L360 220 L60 220 C40 220 16 204 10 184 L0 150 Z" fill="url(#ship)"/>
    <!-- Bridge -->
    <rect x="420" y="20" width="84" height="60" rx="8" fill="#EFF6FF"/>
    <rect x="436" y="36" width="52" height="12" rx="6" fill="#93C5FD"/>
    <rect x="436" y="54" width="52" height="12" rx="6" fill="#93C5FD"/>
    <!-- Containers -->
    <rect x="80" y="80" width="90" height="40" rx="4" fill="url(#container)"/>
    <rect x="176" y="80" width="90" height="40" rx="4" fill="url(#container2)"/>
    <rect x="272" y="80" width="90" height="40" rx="4" fill="#60A5FA"/>
    <rect x="128" y="40" width="90" height="36" rx="4" fill="#34D399"/>
    <rect x="224" y="40" width="90" height="36" rx="4" fill="#FBBF24"/>
  </g>

  <!-- Distant port silhouettes -->
  <g opacity="0.25" fill="#60A5FA">
    <rect x="820" y="260" width="18" height="60" rx="2"/>
    <rect x="860" y="240" width="18" height="80" rx="2"/>
    <rect x="900" y="250" width="18" height="70" rx="2"/>
    <rect x="940" y="230" width="18" height="90" rx="2"/>
  </g>
</svg>
