<svg preserveAspectRatio="xMidYMid meet" data-bbox="-0.002 -0.02 626.252 714.051" viewBox="-0.002 -0.02 626.252 714.051" xmlns="http://www.w3.org/2000/svg" data-type="color" role="presentation" aria-hidden="true" aria-label="">
    <rect x="-0.002" y="-0.02" width="626.252" height="714.051" fill="#000"/>
    <g>
        <path d="M609.6 275.6c-5.72-3.18-8.02-2.05-14.08-3.49-19.34-4.59-37.82-26.23-50.37-41.02-2.87-3.39-16.99-23.24-18.37-23.84-2.93-1.27-9.76 1.9-13.25 1.95-1.84-4.62 8.6-10.17 8.46-12.74l-31.5-67.72c-9.46-1.26-21.28 4.87-30.92 1.08-1.43-5.53 19.78-19.24 23.92-22.95l-1.26-12.46c-1.1-.7-16.35 5.05-18.45 6.08-7.13 3.5-17.64 14.08-23.13 15.94-1.48.5-1.68 1.09-2.88-.58 8.11-11.6 15.74-21.52 28.48-28.52 4.51-2.47 9.65-3.67 14.13-6.22-3-21.06-31.62-15.16-46.86-16.36l-47.31 14.78c-.3-4.69 16.3-19.28 14.84-21.08-13.57-2.86-30-10.47-40.24 3.11l-2.29-2.3c-14.91 11.2-30.83 10.09-47.29 3.09l-7.81 26.55c-1.02-7.31-2.7-27.87-7.01-33.22-2.11-2.62-22.89-10.75-29.34-16.75-3.88-3.61-5.12-7.27-8.16-10.59-2.95-3.23-7.15-4.71-10.17-7.8-6.27-6.41-6.04-13.73-10.69-20.56l-28.36 2.6c19.55 13.75 34.76 34.59 39.81 58.19-2.24 2.25-23.25-19.56-26.18-21.85-16.82-13.09-38.06-19.74-57.07-28.91-15.17 5.31-30.98 6.38-46.54 9.61C81.35 27.57 79.63 54.65 60 81.77c-16.9 23.35-45.54 41.61-50.29 72.73l3.9-.78v29.29c0 1.31-6.14 6.77-6.85 10.34-.45 2.26.16 4.68-.27 6.76-4.22 20.57-9.88 27.01 1.79 46.81 4.49 7.62 41.61 55.09 47.23 55.93l31.54-37.82c.36-2.26-2.57-.89-3.76-.63-12.18 2.68-25.31 16.16-34.13 24.45-1.93-.37 1.93-6.96 2.41-7.75 15.06-24.53 64.65-49.38 91.71-57.09.75-1.24 1.9-1.27 3.12-1.56.46-.11 1.11.12 1.56 0l1.56-.78c.24-.07.54.07.78 0l1.56-.78c.42-.14 1.19.15 1.56 0l1.56-1.56c.37-.16 1.21.16 1.56 0 .43-.2 7.57-4.77 6.25-1.18-.12.34-4.7 2.37-6.25 3.52-16.23 12.1-32.71 23.82-49.2 35.55-.4 2.05 3.18 1.16 4.19 1.06 7.27-.77 20.38-5.61 27.22-8.71 4.18-1.9 7.04-6.38 12.33-5.24 1.75 1.68-9.19 9.48-10.83 10.65-12.13 8.64-26.44 14.11-37.96 23.75-1.67 1.4-14.79 13.78-12.91 15.59l30.45-10.93c1.48 1.91-13.43 14.4-15.63 16.77-4.76 5.14-8.97 10.94-13.17 16.53-.53 1.33 1.2 1.47 2.06 1.63 4.84.89 14.06.39 18.79-1.11 4.63-1.47 15.12-9.46 18.51-9.62 3.56-.17-3.16 5.17-1.94 7.03 1.3 1.96 26.96-3.18 31.24-3.11v-31.64c0-.85 2.5-4-.77-3.52l-6.27 24.22c-5.3.51-4.13-9.01-3.8-12.79.42-4.7 6.52-27.94 5.24-30.05-.27-.45-2.82-.61-3.45-1.68-2.16-3.64 15.47-26.87 18.78-30.5 2.14-2.35 6.98-3.89 6.66-7.78l-5.78.73-1.24-1.89c4.77-5.36 10.64-9.15 17.96-9.79-1.57-8.67-15.14 1.35-17.27-1.23l-.59-4.13 13.61-6.35-.42-5.46 6.25-.4c-3.51-8.58-14.46-7.2-18.75-13.66 10.88-2.33 19.86.92 29.95 3.26.97.23.88 1.12 2.07-.55.55-4.32-14.23-11.51-17.97-12.87-.6-.22-1.18-.66-1.56-.78-1.18-.37-2.65.04-4.69-.78-.69-.28-1.99.7-1.53-1.14.64-2.58 4.58-4.05 7-4.33 1.99-.23 4.23.15 6.25 0v1.56c.45-.09 1.05.03 1.56 0 .47-1.31 2.35-.95 3.12 0 7.31.62 13.92 4.29 21.09 5.46l-.91-12.75c-.59-1.83-2.76-1.51-3.77-2.09-.96-.54-1.91-.73-3.12-1.56-.64-.05-1.06-.47-1.56-.78-.31-.19-.6-.73-.78-.78-5.03-1.36-10.04-2.55-14.84-5.08v-3.51l13.28.78c.52 0 1.05.03 1.56 0 1.61-.09 3.33-.35 4.69.78.52.01 1.05-.05 1.56 0 3.24.32 10.64 1.91 14.08 2.72 1.74.41 4.53 1.03 5.45 2.75.24.06.54-.07.78 0l1.56.78c3.56 1.15 6.71 2.54 10.15 3.9-2.95-17.07-22.99-20.46-31.24-33.58 10.42.85 20.61 4.7 29.62 9.82 4.16 2.36 11.42 9.02 15.31 10.47 3.24 1.21-1.55-7.14-1.97-7.8-.45-.72-1.37-1.33-1.56-2.34L238.6 113.1c19.67-1.52 46.03 22.87 53.8 39.53 5.11 10.97 3.5 21.67 6.34 33.09l-12.95-7.04-2.35.72-1.11 2.74 21.19 47.23h2.16c4.74-12.33 6.3-24.71 13.51-36.09 2.18-3.44 9.49-10.22 9.26-14.18.16-1.61-.1-1.03-1.18-1.2-7.98-1.2-11.63 9.77-19.93 7.83V174.4c0-16.32 15.53-37.7 27.34-48.04 2.51-2.2 3.68-2.87 6.25-4.69 8.39-5.93 18.82-11.93 29.71-10.57l.39 2c-.69 1.15-14.63 8.82-16.82 10.91-.24.23-3.42 4.73-3.91 5.47-1.4 2.12-3.2 4.29-3.12 7.03 2.15-1.44 4.74-2.08 7.02-3.12l.78-.78c.22-.1.57.1.78 0l.78-.78c.21-.1.56.1.78 0l.78-.78c1.26-.55 2.43-.5 3.12-.78 1.71-.7 2.1-2.8 6.25-3.12.25-.27.52-.52.78-.78s.51-.53.78-.78c.26-.24.5-.59.78-.78.69-.46 1.15-.54 1.56-.78.19-.11.59.11.78 0 .1-.06.29-.51.78-.78.32-.18 1.23.17 1.56 0 .08-.04-.35-1.04.78-1.56.22-.1.57.1.78 0 .43-.19.86-.49 1.56-.78.22-.09.56.09.78 0 .09-.04.29-.59.78-.78.22-.09.55.08.78 0 .22-.08.67-.49 1.56-.78.24-.08.55.08.78 0 .96-2.15 2.8-2 4.69-2.34.25-.05.53.04.78 0l10.94-1.55c.06.94-1.17 1.11-1.56 1.55-6.45 7.36-12.25 8.61-17.97 13.28-.62.51-2.46 2.64-3.91 3.91-5.69 5-10.7 11.19-14.06 17.97.52-.01 1.04.02 1.56 0 .25-.01.54.05.78 0l1.56-.78c.25-.07.57.08.78 0l3.12-1.56c1.02-.47 2.07-1.07 3.12-1.56l.78-.78c.21-.1.56.1.78 0l.78-.78c.23-.09.55.08.78 0 .75-1.84 2.35-1.84 3.91-2.34.24-.08.55.08.78 0l1.56-.78c.24-.07.54.06.78 0l1.56-.78c.25-.06.53.05.78 0 10.1-4.62 22.63-4.64 33.59-4.68-2.31 4.23-7.12 5.48-10.94 7.8-7.76 4.73-19.04 9.21-21.09 18.74 15.05-6.38 31.83-5.49 47.64-3.12 4.3 4.23-28.88 8.65-24.99 15.61 10.48-2.3 20.69-2.73 30.45 2.36.23 2.14-.05 1.24-1.18 1.52-6.54 1.63-16.29-1.19-19.12 7.05 3.28-.05 6.83-1.74 10.13-.36 1.99.83 3.72 4.15.78 4.66.91 4.68 12.28 4 11.79 8.58-.54 5.11-13.27-3.82-13.27 3.07 7.68 4.94 17.97 6.8 19.46 17.64L438.5 217c-1.71 1.76 9.18 14.39 10.78 16.94 5.77 9.21 15.78 28.98 15.78 39.68v12.11c-4.46 1.04-2.57-7.29-7.03-6.25v22.26l-1.94 1.17-4.32-21.08h-3.9v39.83l-2.41-.47c-3.02-7.53-2.27-15.79-3.06-23.75l-5.47.79c-.29.79.78 1.63.78 1.95v33.98c-10.18-.27.73-18.82-10.93-21.87l-.79 34.36c-6.33 1.5-7.64-30.6-11.71-25.77l.77 29.67c-2.27 2.59-7.06-16.32-11.71-14.05l-.39 17.96c-15.79-16.07-40.33-46.96-30.22-70.83 5.3-12.53 15.25-7.28 24.66-8.15 18.03-1.68 18.53-19.68 29.53-23.58 4.82-1.71 23.29-1.09 15.82-11.43-2.49-3.45-31.65-15.74-36.75-16.36-13.01-1.58-22.66 2.65-34.67 6.16-.5-11.22 3.43-24.58 12.39-31.75l-.66-2.25c-4.72-3.2-16.24 9.76-18.63 13.45-6.39 9.86-7.87 21.19-12.44 31.34-.5 1.11.49 2.12-1.77 1.71V229.1c0-1.41-1.81-6.95-3.9-5.08l-3.91 31.24 4.67-3.12c-2.96 20.41.63 38.96 6.05 58.4 5.07 18.2 13.71 37.64 17.5 55.92.93 4.46 2.11 9.28 1.11 13.83-1.96 2.79-16.89-2.74-20.44-3.08-17.8-1.69-33.53 11.58-51.49 10.09-9.94-.83-26.02-10.96-32.78-10.96h-11.33c.56 6.66 3.81 12.72 6.9 18.49 4.19 7.82 13.22 22.1 18.55 29.09 8.17 10.7 18.19 16.82 15.87 33.19-.62 4.38-4.29 7.6-4.56 11.91-.16 2.51.99 4.57.75 6.85-.71 6.71-3.45 13.11-3.14 19.97 21.87-4.2 50.94 1.98 70.33 12.86 20.08 11.28 8.48 30.09 3.86 47.29-2.01.36-1.21-.27-1.63-1.09-2.76-5.4-1.55-15.21-8.51-17.65-2.28 2.35 2.22 24.61-7.03 24.99-.69-.73-1.95-16.72-3.32-19.73-.49-1.08-.85-1.6-2.14-1.36-2.5 4.99-.99 10.14-1.59 15.21-.56 4.8-6.87 19.53-11.44 21.36-1.33.53-1.76.59-1.79-.99-.14-7.52 8.4-18.13 1.02-27.04-5.27-1.59-6.78 8.66-8.44 11.79-3.74 7.04-7.85 14.11-11.85 21.02-4.49 1.35-9.45-15.21-14.34-15.57-.88.99 6.52 18.74 7.46 21.82 5.52 18.14 9.03 37.87 15.95 55.91 3.56 9.28 9.11 17.59 12.51 26.93h-.74c.04.26.05.51.04.77h1.81l-1.11 3.14c1 .65 1.84.69 2.61 1.75 4.44 6.14 10.15 35.03 21.79 33.26 6.15-.93 17.55-9.92 25.59-9.23l-11.71 11.33c-.2 1.52.03 1.07 1.18 1.19 18.52 1.93 47.41-8.54 61.67-20.36 6.49-5.38 11.3-12.71 17.6-17.94l.8-2.72h.4c.08-.42.21-.82.41-1.2h-.04c.05-.06.09-.12.13-.18.14-.23.3-.45.48-.65 8.83-11.69 13.34-25.93 20.48-38.6 5.69-10.09 15.3-20.93 19.12-31.66 3.93-11.06 2.42-23.39 6.1-34.52 1.71-5.18 9.61-14.93 9.93-17.49.29-2.31-1.56-4.32-1.57-7.35l-.78-1.56c-.14-.27-.06-3.16 0-3.91l-.78-1.56c-.37-.6.3-4.22 0-5.47-1.86.23-2.09-.19-.78-1.56-1.44-6.38-2.68-13.33-4.69-19.53-.48-1.47-1.04-3.25-1.56-4.69-2.41-6.63-7.37-16.02-10.81-22.39-2.2-4.08-22.54-34.93-20.44-36.97 1.86-.2 3.29.03 4.97.88 7.32 3.67 31.96 40.1 33.3 48.33 1.31.05 4.26 6.37 4.69 7.81 1 3.38 1.92 9.64 2.34 13.28.88.56 1.23 2.08 0 2.34.51 6.52.36 9.96 0 16.4 1.32.47.92 2.33 0 3.12-.21 2.61-.5 5.21-.78 7.81l.78 1.56c2.35-1.48 15.32-11.66 15.99-13.3 2.54-6.24-7.51-39.86-10.52-47.63-.71-1.83-2.44-3.85-3.12-5.47-10.24-24.15-23.81-46.36-36.72-69.11.7-3.9 9.49 3.46 10.52 4.3 17.03 13.8 25.3 34.21 34.79 53.09.86 1.71 2.11 3.47 3.12 5.47 1.32 2.59 7.06 17.36 9.8 9.41 2.18-6.3-1.66-17.64-3.37-24.04-3.03-11.33-8.55-25.96-14.61-36.94-7.77-14.08-21.39-25.49-24.62-41.38 16.87 11.17 29.23 27.85 40.24 44.54l1.95-.55 5.46-19.33c-5.83-10.88-11.88-21.78-18.9-31.94-2.27-3.29-23.13-28.69-21.71-30.22 15.46 8.66 29.53 22.5 40.59 36.34 1.86 2.33 6.6 10.72 8.03 11.51 3.61 1.97 7.43-6.76 9.85-9.38.44-2.53-3.85-7.56-5.36-10.35-.73-1.35-2.75-2.4-2.34-4.69-2.43.36-1.32-1.81-1.56-3.12l-2.41-.51-35.08-52.22c14.39 3.75 28.54 15.59 36.71 27.74.23.34 1.52.66 1.95 1.57l.4 2.33c1.96-.54 1.35 1.34 1.56 1.56.92.99 4.08 2.74 3.12 4.69h.78l.78.78c4.15 6.83 7.81 14.02 11.41 21.15 14.05-5.69 8-12.03 2.5-21.39-13.58-23.11-32.33-46.12-53.74-62.27l.39-1.55c6.85-2.01 22.06 8.06 24.9 6.86 3.39-1.44-.65-6.01-1.86-7.63-.42-.57-1.49-1.11-2.34-2.34-.53-.77-1.76-1.17-2.34-2.34-2.63.22-3.49-2.23-4.69-3.12-12.41-9.22-28.41-16.75-39.84-26.56-.17-.14-1.11.12-1.56 0v-1.55c2.36.28 5.71-2.3 7.03.78 1.4.11 2.57.49 3.91.78.96.21 1.47.76 1.56.78 1.03.27 2.1.47 3.12.78 1.16.36 2.01 1.45 2.34 1.56.23.08.55-.08.78 0 .87.3 1.31.69 1.56.78.23.09.56-.09.78 0 .64.25 1.14.61 1.56.78 2.06.81 4.17 1.57 6.25 2.34.68.25 1.45.75 1.56.78.24.07.55-.08.78 0 .55.19 1.29-.04 1.56.78 1.37.36 3.41 1.47 3.91 1.56.69.13 4.46.68 3.9-1.16-10.59-13.79-28.65-18.49-41.65-28.66-1.34-1.05-7.91-7.11-8.33-8.08-.4-.92.13-1.49 1.11-1.11 12.2 4.77 24.3 9.74 36.38 14.79 1.71.72 4.59.61 6.25 2.34.76.29 1.56.47 2.34.78 1.47-.25 1.83.08 1.56 1.56 2.27.86 4.36 1.13 7.03 2.34 1.13.52 2.07 1.05 3.12 1.56 14.87 7.21 42.72 24.61 47.26 41.4.27 1.01 1.35 3.47-.77 3.12l-32.42-22.64c-1.91 1.93 9.19 10.96 10.91 12.91 15.29 17.41 29.21 38.4 38.31 59.73 2.14 1.4 26.13-26.65 26.55-30.93.72-7.46-16.62-26.74-16.41-31.56ZM61.27 112.34c-1.89-1.83 2.9-6.24 3.89-2.72.76 2.7-3.22 3.38-3.89 2.72m67.17 109.36c-.81-2.74 7.41-5.88 7.8-5.46 1.81 1.97-6.59 6.52-7.8 5.46m37.65-121.62c-10.51-4.73-27.45-9.47-38.93-10.28-3.25-.23-13.21-1.58-12.81 2.59l1.63 2.34c21.06 7.18 49.59 13.92 56.98 37.92l-56.23-3.91c2.83-2.74 23.49-3.96 24.21-7.42.88-4.27-19.65-5.23-22.69-4.71-6.23 1.05-15.51 7.84-21.65 8.09-2.53.11-4.62-2.57-7.23-1.04-3.61 2.15-3.62 22.72-11.68 23.1l.34 2.34c7.42 2.28 3.4 8.39 3.64 13.55.95 20.42 26.52 30.16 36.28 42.6.82 1.05 1.41 1.69 1.11 3.17-5.03 2-9.38-2.06-13.84-3.72-2.57-.96-5.57-1.15-7.95-2.21-33.99-15.15-44.63-85.32-8.96-103.32C93 96.8 99 96.09 103.56 93.33c7.6-4.6 8.45-11.59 19.12-13.69 27.94-5.49 57.91 11.4 72.94 34.27-2.85 2.23-25.3-11.92-29.52-13.82Zm84.2-18.98L115.94 41.27c12.52-.17 24.39-5.86 37.01-4.6 5.18.52 10.62 3.79 16.1 3.03l-2.06-5.35c-6.23-.75-15.77-.72-21.56-2.66-1.38-.46-3.22-.99-2.93-2.91 15.73 1.78 30.43-2.83 46.07 1.18 11.64 2.98 26.19 12.4 35.53 19.93 3.61 2.91 29.95 27.24 26.19 31.21m130.5 175.03c.33-.55 9.84-.12 12.79-.88 2.19-.56 14.71-7.61 15.27-6.98.14 11.99-6.15 17.16-18 15.27-2.56-.41-12.4-3.53-10.06-7.4Zm-64.42 178.89c10.03-16.51 21-18.3 36.53-25.96 15.34-7.58 14.05-16.45 23.97-28.42l14.02 3.54c-.92-17.52-16.14-30.87-17.18-48.43l7.78 8.22c7.56 9.44 26.27 35.95 25.83 47.59-.4 10.39-13.18 6.74-15.64 14.84 1.55 5.1 16.08-5.71 18.5-5.67 4.17.06 3.02 7.26-.6 9.55-4.14 2.62-19.39 6.56-25.12 8.46-3.01 1-7.89.5-6.84 3.7h26.17c1.02 0 10.38-7.89 10.54-2.79.46 14.92-44.02 12.93-45.98 17.35-.24.53-.3 2.08-.02 2.54 2.05 3.33 38.59-3.69 44.46-2.67l.44 2.02c-1.21 4.16-16.62 10.88-19.6 10.88h-45.7l.97 1.77c6.12.96 10.21 3.87 16.63 4.46 13.14 1.19 28.77-2.38 42.17-.76 1.13.14 2.27-.65 1.93 1.16-16.25 16.63-41.96 7.17-62.49 9l.02 2.31c17.4 7.1 35.61 4.37 53.88 3.94-.42 4.41-6.74 7.44-10.4 8.73-28.23 9.97-100.79-1.75-74.28-45.38Zm101.08 168.65c-.15 2.06.11 4.18 0 6.25-.05.9-.09 1.68-.78 2.34-.24 12.97-9.35 34.75-20.3 42.18l6.24-21.09c.13-.44.76-.69.78-.78.23-.82-.23-2.3 0-3.12.16-.56.77-.73.78-.78.74-2.68.98-4.68 1.56-7.03.27-1.1.76-1.48.78-1.56.16-.67-.16-1.66 0-2.34.12-.54.77-.73.78-.78.15-.69.6-1.46.78-2.34.02-.11-.4.52 0-1.56.37-1.91.51-3.59.78-5.47.08-.54.77-.73.78-.78.23-1.64-.06-3.72 0-5.47.03-.87-.21-1.91.78-2.34-.07-1.79-.07-3.67 0-5.47.03-.87-.21-1.91.78-2.34-.22-5.44.14-10.96 0-16.4-.14-5.68-1.3-11.42-.78-17.19l2.42.46c1.63 5.19 2.41 10.57 3.05 15.94.21 1.82.66 3.68.78 5.47.73.67.72 1.44.78 2.34.13 1.96.09 4.27 0 6.25.95.92.73 1.97.78 3.12.18 4.1-.59 7.27-.78 10.94 0 .15.07.62 0 1.56Zm26.56 1.56c-.1 1.3-.77 1.48-.78 1.56-.21 2.2-.42 5.92-.78 7.81-.23 1.2-.76 1.48-.78 1.56-.35 1.62-.34 3.73-.78 5.47-.69 2.7-1.52 1.41-1.56 1.56-3.27 11.07-4.56 16.62-11.39 26.5-2.51 3.64-6.92 5.97-7.37 10.21-3.82.21-.22-3.19.01-3.9.23-.69.68-1.25.78-1.56.13-.43-.14-1.15 0-1.56.28-.82.75-1.48.78-1.56 1.17-3.62 2.1-7.28 3.12-10.94.27-.95.76-1.48.78-1.56.12-.45-.12-1.11 0-1.56.27-1.02.76-1.48.78-1.56.6-2.31 1.02-4.72 1.56-7.03.26-1.12.76-1.48.78-1.56.41-1.83.4-4.38.78-6.25.24-1.17.76-1.48.78-1.56.79-4.14 1.37-7.43 1.56-11.72.04-.87-.22-1.91.78-2.34-.08-2.05-.07-4.2 0-6.25.03-.87-.21-1.91.78-2.34-.11-2.85.03-5.74 0-8.59-.04-4.14-.15-8.37 0-12.5.1-2.72-.35-6.04 0-8.59.19-4.87-8.05-32.7-5.45-34.36 1.23-.19 1.79-.07 2.72.78 1.6 1.47 9.11 26.09 9.77 29.68.41 2.24.73 4.74.78 7.03.67.66.76 1.45.78 2.34.01.52-.03 1.04 0 1.56v1.56c.09 1.58.67 3.1.78 4.69.73.67.72 1.44.78 2.34.43 6.46.5 16.23 0 22.65Zm37.49-103.1c1.51-.24 2.12.14 3.15 1.14 2.18 2.09 4.54 10.06 5.8 13.34 1.15 2.97 8.43 18.42 3.92 20.66-1.63.39-1.28-1.15-1.68-2.18-2.64-6.69-5.29-14.38-7.5-20.67-.64-1.83-4.48-11.47-3.68-12.29Zm-14.84 33.58c.51 1.55 1.93 3.19 2.34 4.69 7.73 27.72 6.25 58.51-4.79 85.03h-2.9c-2.66-1.75 3.11-17.21 3.69-20.69 2.65-15.96-.91-43.63-4.58-59.65-.31-1.36-.52-2.86-.78-3.91-3.03-11.98-11.76-27.95-14.29-39.21-.4-1.79-.8-3.46-.54-5.31 11.34 10.34 17.16 24.88 21.86 39.06Zm32.72-366.41-23.25-9.4c-.49-1.51.42-5.34 2.48-5.26l21.53 10.15-.77 4.51Z" fill="#ede9da" data-color="1"></path>
        <path d="M237.01 217.41c-.86-5.11-12.41-19.51-11.66-22.59 2-2.82 5.25-.17 7.38 1.09 16.27 9.63 18.09 34.57 23.04 50.79 7.31-1.2-5.42-18.5 1.18-19.52 3.02-.47 5.59 12.84 5.82 15.24 1.01 10.76-1.29 21.64-.76 32.39 1.04 1.19 3.9-3.87 3.9-4.29v-41.79c1.91-.26 2.4 1.54 2.96 2.9 3.73 8.89 2.81 24.44 1.49 33.97-.57 4.11-6.73 25.74-5.92 27.09.24.39 2.14.36 2.84 1.06 4.26 4.27-11.71 19.09-9.19 21.68h6.25c1.93 1.91-8.93 11.15-10.15 12.9-.8 1.14-3.72 5.26-1.15 5.85 15.78-8.52.23 8.83-.8 8.6-4.79-10.82-13.55-15-22.99-20.82 4.8-8.32 13.8-34.81 5.45-42.1-4.64-4.05-26.26-.71-37.95-11.26-3.94-3.56-7.15-11.18-11.34-13.66-3.73-2.21-7.21-1.31-10.69-2.59-3.57-1.31-7.68-6.54-11.18-8.42l.51-1.98c16.22-7.27 25.09-18.69 44.41-17.1 4.05.33 8.47 2.23 12.5 2.36 3.5.12 7.08-1.3 10.2-.87 2.76.38 3.1 2.67 5.83 2.4-.41-3.48.56-8.01 0-11.33Zm-35.14 30.08c-.14 12.99 11.59 20.3 23.2 14.22 1.97-1.03 5.75-3.49 4.85-5.94-.81-2.05-8.8-1.1-11.69-1.61-5.79-1.03-10.51-5.78-16.36-6.67" fill="#ede9da" data-color="1"></path>
        <path d="m81.57 325.59-2.38 34c1.02 44.1 12.94 86.5 36.43 123.72 38.52 61.03 104.62 101.62 176.85 107.87l-1.31 3.97c-40.01-2.37-80.31-17.77-113.3-40.51-73.15-50.44-113.3-139.58-100.64-228.3l4.34-.74Z" fill="#ede9da" data-color="1"></path>
        <path d="M530.71 445.1c2.23-9.22 5.78-18.04 8.36-27.17 1.26-4.45 2.08-13.52 3.54-16.76 1.16-2.57 5.31-4.56 5.12-.42-.28 6.18-5.47 24.16-7.64 30.71-.77 2.33-5.21 17.71-9.39 13.64Z" fill="#ede9da" data-color="1"></path>
        <path d="M609.6 275.6c.03-.57-.36-1.67.48-1.58 11.17-.15 19.09-2.08 15.14 12.51-5.65-2.38-9.76-7.68-15.61-10.94Z" fill="#ede9da" data-color="1"></path>
        <path d="M509.62 535.71c.01-.18-.07-1.9 0-3.12 1.32.47.92 2.33 0 3.12" fill="#ede9da" data-color="1"></path>
        <path d="M509.62 516.19c-.09-1.21.02-2.2 0-2.34.88.56 1.23 2.08 0 2.34" fill="#ede9da" data-color="1"></path>
        <path d="M509.62 545.09c-.26.16-.09 1.21-1.56.78-.5-1.14.75-2.05.78-2.34z" fill="#ede9da" data-color="1"></path>
        <path d="M146.4 222.49c-.52 1.89-2.01 1.24-3.12 1.56.75-1.24 1.9-1.27 3.12-1.56" fill="#ede9da" data-color="1"></path>
        <path d="M194.05 160c-.99-.08-2.13-.05-3.12 0 .47-1.31 2.35-.95 3.12 0" fill="#ede9da" data-color="1"></path>
        <path d="M502.59 534.15c.07.11 1.11-.07 1.56 0 .3.78-.77 1.44-.78 1.56z" fill="#ede9da" data-color="1"></path>
        <path d="M503.37 539.62c.06.11 1.22-.08 1.56 0 .3.77-.78 1.47-.78 1.56z" fill="#ede9da" data-color="1"></path>
        <path d="M502.59 528.68c-1.86.23-2.09-.19-.78-1.56.02.09.52.45.78 1.56" fill="#ede9da" data-color="1"></path>
        <path d="M154.99 219.36c-.14.06 1.05.51-1.56 1.56z" fill="#ede9da" data-color="1"></path>
        <path d="M149.53 221.71c-.08.02-.53.51-1.56.78z" fill="#ede9da" data-color="1"></path>
        <path d="M151.87 220.92c-.15.05-.64.5-1.56.78z" fill="#ede9da" data-color="1"></path>
        <path d="M233.11 146.72c-.85-.28-1.48-.76-1.56-.78z" fill="#ede9da" data-color="1"></path>
        <path d="M554.93 348.25c-.16-.26-.6-.48-.78-.78z" fill="#ede9da" data-color="1"></path>
        <path d="M442.44 575.55c-.04-.82 0-1.46 0-1.56z" fill="#ede9da" data-color="1"></path>
        <path d="m377.61 120.94-1.56.78c.43-.19.86-.49 1.56-.78" fill="#ede9da" data-color="1"></path>
        <path d="m371.36 124.07-1.56.78c.69-.46 1.15-.54 1.56-.78" fill="#ede9da" data-color="1"></path>
        <path d="m500.25 249.83-1.56-.78c.96.21 1.47.76 1.56.78" fill="#ede9da" data-color="1"></path>
        <path d="m508.06 252.95-1.56-.78c.87.3 1.31.69 1.56.78" fill="#ede9da" data-color="1"></path>
        <path d="m510.4 253.73-1.56-.78c.64.25 1.14.61 1.56.78" fill="#ede9da" data-color="1"></path>
        <path d="m518.21 256.86-1.56-.78c.68.25 1.45.75 1.56.78" fill="#ede9da" data-color="1"></path>
        <path d="m505.71 252.17-2.34-1.56c1.15.36 2.01 1.45 2.34 1.56" fill="#ede9da" data-color="1"></path>
        <path d="M520.56 257.64c-.6-.16-1.25-.08-1.56-.78.55.19 1.29-.04 1.56.78" fill="#ede9da" data-color="1"></path>
        <path d="M207.33 149.06c-.64-.05-1.06-.47-1.56-.78.85-.15 1.13.48 1.56.78" fill="#ede9da" data-color="1"></path>
        <path d="M403.39 629.45c.16-.56.77-.73.78-.78z" fill="#ede9da" data-color="1"></path>
        <path d="M378.39 120.94c.09-.04.29-.59.78-.78z" fill="#ede9da" data-color="1"></path>
        <path d="M372.14 124.07c.1-.06.29-.51.78-.78z" fill="#ede9da" data-color="1"></path>
        <path d="M408.86 607.58c.08-.54.77-.73.78-.78z" fill="#ede9da" data-color="1"></path>
        <path d="M402.61 633.35c.13-.44.76-.69.78-.78z" fill="#ede9da" data-color="1"></path>
        <path d="M406.51 617.73c.12-.54.77-.73.78-.78z" fill="#ede9da" data-color="1"></path>
        <path d="M114.37 515.79c-23.05 18.03-44.2 48.03-67.2 67.15l-37.3 11.53-9.5 34.71c0 2.02.35 3.07 1.07 3.61.03-.03.06-.05.08-.08.45-.44.88-.91 1.31-1.36.51-.54 1.06-1.07 1.64-1.54v-.13c39.23-35.19 74.11-77.11 113.01-112.35.97-.88 1.63-1.94 3.14-1.93-1.5-4.35-3.66-1.64-6.25.39" fill="#ede9da" data-color="1"></path>
        <path d="M119.34 513.94 4.43 629.06c-1.08 1.2-2.16 2.39-3.23 3.59.59.39 1.64.94 2.88.78.41-.05.5-.16 2.2-.94.82-.38 1.64-.73 2.47-1.1 1.31-.58 1.97-.88 2.17-.96 1.18-.47 1.47-.49 2.74-1.02.37-.15.73-.34 1.34-.57a17.5 17.5 0 0 1 2.37-.73c1.41-.34 9.64-2.64 21.21-5.9l9.58-31.04 72.8-74.04c.29-.16.82-.52.89-1.04.11-.8-.84-1.85-2.5-2.13Z" fill="#ede9da" data-color="1"></path>
        <path d="M118.34 512.61a2.04 2.04 0 0 0-2.05.16l-74.02 72.82-31.04 9.59c-3.26 11.58-5.55 19.8-5.89 21.22-.02.08-.12.51-.29 1.09-.07.24-.22.7-.44 1.28-.24.61-.42.97-.57 1.34-.53 1.28-.55 1.57-1.02 2.75-.08.2-.37.86-.96 2.17-.37.82-.72 1.65-1.1 2.47-.64 1.4-.83 1.71-.9 2 0 .01-.02.12-.04.2-.06.36-.09 1.35 1.17 2.97 1.07-1.11 2.13-2.22 3.2-3.33l115.09-114.95a2.03 2.03 0 0 0-1.13-1.76Z" fill="#ede9da" data-color="1"></path>
        <path d="m120.99 514.78-.54-.45c-.04-.03-.08-.06-.13-.09-.16-.05-.33-.1-.51-.1L4.51 628.87c-1.08 1.19-2.16 2.39-3.25 3.58.59.39 1.64.94 2.87.79.41-.05.5-.15 2.2-.93.82-.37 1.65-.73 2.47-1.09 1.31-.58 1.97-.87 2.17-.95 1.18-.46 1.47-.49 2.75-1.01.37-.15.73-.34 1.34-.57.59-.22 1.04-.37 1.28-.44.57-.17 1.01-.27 1.09-.29 1.42-.34 9.64-2.61 21.23-5.83l9.68-31.01 73.05-73.8c.2-.29.32-.63.35-.97-.5-.36-.75-.96-.77-1.57Z" fill="#ede9da" data-color="1"></path>
        <path d="M510.98 133.82c23.05-18.03 44.2-48.03 67.2-67.15l37.3-11.53 9.51-34.71c0-2.02-.35-3.07-1.07-3.61-.03.03-.06.05-.08.08-.45.44-.88.91-1.31 1.36-.51.54-1.06 1.07-1.64 1.54v.13c-39.23 35.19-74.11 77.11-113.01 112.35-.97.88-1.63 1.94-3.14 1.93 1.5 4.35 3.66 1.64 6.25-.39Z" fill="#ede9da" data-color="1"></path>
        <path d="M506.01 135.67 620.93 20.55c1.08-1.2 2.16-2.39 3.23-3.59-.59-.39-1.64-.94-2.88-.78-.41.05-.5.16-2.2.94-.82.38-1.64.73-2.47 1.1-1.31.58-1.97.88-2.17.96-1.18.47-1.47.49-2.74 1.02-.37.15-.73.34-1.34.57a17.5 17.5 0 0 1-2.37.73c-1.41.34-9.64 2.64-21.21 5.9l-9.58 31.04-72.8 74.04c-.29.16-.82.52-.89 1.04-.11.8.84 1.85 2.5 2.13Z" fill="#ede9da" data-color="1"></path>
        <path d="M507.01 137c.66.32 1.44.26 2.05-.16l74.02-72.82 31.04-9.59c3.26-11.58 5.55-19.8 5.89-21.22.02-.08.12-.51.29-1.09.07-.24.22-.7.44-1.28.24-.61.42-.97.57-1.34.53-1.28.55-1.57 1.02-2.75.08-.2.37-.86.96-2.17.37-.82.72-1.65 1.1-2.47.64-1.4.83-1.71.9-2 0-.01.02-.12.04-.2.06-.36.09-1.35-1.17-2.97-1.07 1.11-2.13 2.22-3.2 3.33L505.87 135.22c.02.75.46 1.43 1.13 1.76Z" fill="#ede9da" data-color="1"></path>
        <path d="m504.37 134.84.54.45c.04.03.08.06.13.09.16.05.33.1.51.1L620.84 20.74c1.08-1.19 2.16-2.39 3.25-3.58-.59-.39-1.64-.94-2.87-.79-.41.05-.5.15-2.2.93-.82.37-1.65.73-2.47 1.09-1.31.58-1.97.87-2.17.95-1.18.46-1.47.49-2.75 1.01-.37.15-.73.34-1.34.57-.59.22-1.04.37-1.28.44-.57.17-1.01.27-1.09.29-1.42.34-9.64 2.61-21.23 5.83l-9.68 31.01-73.05 73.8c-.2.29-.32.63-.35.97.5.36.75.96.77 1.57Z" fill="#ede9da" data-color="1"></path>
    </g>
</svg>